<svg id="Calque_2" data-name="Calque 2" xmlns="http://www.w3.org/2000/svg" width="258.9" height="293.11" viewBox="0 0 258.9 293.11">
  <defs>
    <style>
      .cls-1 {
        fill: #ff8000;
      }

      .cls-2 {
        fill: #ffb300;
      }

      .cls-3 {
        fill: #ffde92;
      }

      .cls-4 {
        fill: #ff6800;
      }
    </style>
  </defs>
  <path class="cls-1" d="M329.14,212a48.65,48.65,0,0,0,7.06,8.38c7.27,6.94,15.06,10.59,18.45,8.89l.05-.15-.19-9.11-1.25-61.36-17.88-1.27-4.84,42.41Z" transform="translate(-124.53 -110.74)"/>
  <path class="cls-2" d="M313.72,113.81s5,15.7,5.75,19.53,4.59,50.94,4.59,50.94-1.53.76,2.3,5,39.35,28.05,41.27,36.86,4.69,36.67,4.69,36.67L340.15,280.4s-59-37.53-57.83-40.21S313.72,113.81,313.72,113.81Z" transform="translate(-124.53 -110.74)"/>
  <path class="cls-3" d="M315.8,117.43c-1-7.66-7.66-6.64-7.66-6.64S176.4,118.45,168.23,119s-5.62,11.75-5.62,11.75,2,65.87,1,70.47-33.19,44.42-33.19,44.42,1,44.94,3.57,62.81,97.54-27.06,102.64-29.1S291.8,249.18,292.31,239s1-12.25,7.15-23,14.3-19.41,16.85-25S316.82,125.09,315.8,117.43Zm-59.73,30-36,1.69a13,13,0,0,1-13.61-12.4l0-.33a13,13,0,0,1,12.4-13.61l36-1.69a13,13,0,0,1,13.62,12.4l0,.32A13,13,0,0,1,256.07,147.44Z" transform="translate(-124.53 -110.74)"/>
  <path class="cls-4" d="M383.43,371.68l-99.07,32.17-.38-.06L124.53,378.32l5.62-132.77c2.55,4.09,14.81,33.19,32.17,37.79s33.19-2.55,53.11-25,51.06-22,68.93-23a29.44,29.44,0,0,1,8,.65c13.93,3.07,24.44,15.51,28.76,22.84,5.1,8.68,26.55,15.83,37.27,10.21s12.26-21.44,12.26-21.44Z" transform="translate(-124.53 -110.74)"/>
  <path class="cls-1" d="M383.43,371.68l-99.07,32.17-.38-.06L292.37,236c13.93,3.07,24.44,15.51,28.76,22.84,5.1,8.68,26.55,15.83,37.27,10.21s12.26-21.44,12.26-21.44Z" transform="translate(-124.53 -110.74)"/>
  <polygon class="cls-2" points="112.47 190.91 109.76 212.13 121.02 194.94 138.13 216.08 132.46 186.47 149.24 173.89 125.55 175.12 119.87 156.62 114.2 177.84 97.92 179.81 112.47 190.91"/>
  <polygon class="cls-3" points="62.81 225.82 61 239.97 68.51 228.51 79.92 242.6 76.14 222.86 87.32 214.47 71.53 215.29 67.75 202.96 63.96 217.1 53.11 218.42 62.81 225.82"/>
  <polygon class="cls-1" points="109.92 249.95 108.11 264.1 115.62 252.63 127.03 266.73 123.24 246.99 134.43 238.6 118.64 239.42 114.85 227.09 111.07 241.23 100.21 242.55 109.92 249.95"/>
  <path class="cls-1" d="M285.86,215.41a49.19,49.19,0,0,1-7.47,8.38c-7.68,6.94-15.92,10.59-19.51,8.89a3,3,0,0,1-1-.71c-1.48-1.64-.94-4.81,1.12-8.55a44.46,44.46,0,0,1,9.09-11c5.86-5.29,12.06-8.68,16.26-9.22,1.87-.24,3.35.08,4.22,1C290.42,206.25,289.2,210.56,285.86,215.41Z" transform="translate(-124.53 -110.74)"/>
  <ellipse class="cls-1" cx="219.51" cy="219.64" rx="20.68" ry="7.66" transform="translate(-214.85 88.15) rotate(-41.19)"/>
  <ellipse class="cls-1" cx="169.98" cy="220.66" rx="20.68" ry="7.66" transform="translate(-226.59 50.08) rotate(-39.99)"/>
  <path class="cls-2" d="M285.86,215.41a49.19,49.19,0,0,1-7.47,8.38c-7.68,6.94-15.92,10.59-19.51,8.89l-.05-.15.2-9.11.39-18.2.15-6.91.79-36.25,18.9-1.27,5.12,42.41Z" transform="translate(-124.53 -110.74)"/>
  <path class="cls-2" d="M232.5,216.94a49.19,49.19,0,0,1-7.47,8.38c-7.68,6.94-15.92,10.59-19.51,8.89l-.05-.15.2-9.11L207,163.59l18.9-1.27L231,204.73Z" transform="translate(-124.53 -110.74)"/>
  <path class="cls-2" d="M183.48,217.45a49.19,49.19,0,0,1-7.47,8.38c-7.68,6.94-15.92,10.59-19.51,8.89l-.05-.15.2-9.11L158,164.1l18.9-1.27L182,205.24Z" transform="translate(-124.53 -110.74)"/>
  <path class="cls-1" d="M260.53,164.55l21.21-1.34S280.4,159,279.45,159s-19.92,1.15-19.92,1.15l-1.72,4.4Z" transform="translate(-124.53 -110.74)"/>
  <path class="cls-2" d="M334.34,157.67l21.19,1.66s-.73-4.36-1.68-4.49S334,153.17,334,153.17l-2.33,4.12Z" transform="translate(-124.53 -110.74)"/>
  <path class="cls-1" d="M207.3,166.47l21.21-1.34s-1.34-4.22-2.3-4.22-19.91,1.15-19.91,1.15l-1.73,4.41Z" transform="translate(-124.53 -110.74)"/>
  <path class="cls-1" d="M157.89,166.85l21.22-1.34s-1.34-4.21-2.3-4.21-19.92,1.15-19.92,1.15l-1.72,4.4Z" transform="translate(-124.53 -110.74)"/>
  <path class="cls-4" d="M157.26,199.84s-.25-.52,2.94-1.58c3.44-1.15,11.06-2.35,12.49-1.73a2.79,2.79,0,0,1,2.06,2.68c.05,1.25-1.39,2.54-4.26,3.16s-13.45,3.5-13.45,3.5Z" transform="translate(-124.53 -110.74)"/>
  <path class="cls-4" d="M206.28,197.41s-.24-.52,2.94-1.58c3.44-1.15,11.06-2.35,12.49-1.72a2.79,2.79,0,0,1,2.06,2.68c0,1.24-1.39,2.53-4.26,3.16s-13.45,3.49-13.45,3.49Z" transform="translate(-124.53 -110.74)"/>
  <path class="cls-4" d="M259.71,196s-.25-.52,2.93-1.58c3.45-1.15,11.06-2.34,12.5-1.72a2.81,2.81,0,0,1,2.06,2.68c0,1.25-1.39,2.54-4.26,3.16s-13.46,3.5-13.46,3.5Z" transform="translate(-124.53 -110.74)"/>
  <path class="cls-2" d="M353.72,189.65s.18-.51-2.15-1.58c-2.52-1.14-8.09-2.34-9.15-1.72a2.81,2.81,0,0,0-1.5,2.68c0,1.25,1,2.54,3.12,3.16s9.85,3.5,9.85,3.5Z" transform="translate(-124.53 -110.74)"/>
  <path class="cls-1" d="M171.3,208.16c-2.93.43-13.23.66-14.29.55l.25-8.87c1,3.82,11.68,0,15.43,1.62C176.77,203.24,175.52,207.56,171.3,208.16Z" transform="translate(-124.53 -110.74)"/>
  <path class="cls-1" d="M220.26,206.25c-2.93.42-13.24.65-14.3.54l.26-8.87c1,3.83,11.68,0,15.43,1.63C225.73,201.33,224.48,205.65,220.26,206.25Z" transform="translate(-124.53 -110.74)"/>
  <path class="cls-1" d="M273.69,204.43c-2.94.42-13.24.65-14.3.54l.25-8.87c1,3.83,11.68,0,15.43,1.63C279.15,199.51,277.9,203.83,273.69,204.43Z" transform="translate(-124.53 -110.74)"/>
  <path class="cls-3" d="M343.6,197.73a80.79,80.79,0,0,0,10.58.54L354,189.4c-.72,3.83-8.65,0-11.42,1.63A3.62,3.62,0,0,0,343.6,197.73Z" transform="translate(-124.53 -110.74)"/>
</svg>
