<svg id="Calque_4" data-name="Calque 4" xmlns="http://www.w3.org/2000/svg" width="333.97" height="260.58" viewBox="0 0 333.97 260.58">
  <defs>
    <style>
      .cls-1 {
        fill: #ffb300;
      }

      .cls-2 {
        fill: #ff8000;
      }

      .cls-3 {
        fill: #fff;
      }

      .cls-4 {
        fill: #ffde92;
      }

      .cls-5 {
        fill: #f15a24;
      }

      .cls-6 {
        fill: none;
        stroke: #f15a24;
        stroke-miterlimit: 10;
      }
    </style>
  </defs>
  <g>
    <circle class="cls-1" cx="164.52" cy="53.62" r="48"/>
    <circle class="cls-2" cx="164.01" cy="53.62" r="40.85"/>
    <circle class="cls-3" cx="165.03" cy="53.11" r="35.23"/>
  </g>
  <path class="cls-4" d="M399.54,329l-246.8,41.19a12,12,0,0,1-13.81-9.86l-2.46-14.73-.81-4.86-2.31-13.84-.73-4.36L113.88,210.18a12,12,0,0,1,9.86-13.81l246.8-41.19A12,12,0,0,1,384.35,165l18.58,111.34,1.06,6.34,1.78,10.69,1.15,6.89,2.48,14.84A12,12,0,0,1,399.54,329Z" transform="translate(-113.72 -109.72)"/>
  <polygon class="cls-5" points="293.2 190.58 22.75 235.83 21.95 230.97 19.64 217.13 290.27 173 292.06 183.69 293.2 190.58"/>
  <polygon class="cls-2" points="292.06 183.69 21.95 230.97 18.91 212.77 289.21 166.66 292.06 183.69"/>
  <rect class="cls-5" x="135" y="264.96" width="42.13" height="33.7" rx="12" transform="matrix(0.99, -0.16, 0.16, 0.99, -155.52, -82.12)"/>
  <rect class="cls-4" x="138.27" y="268.11" width="34.9" height="27.92" rx="12" transform="translate(-155.56 -82.17) rotate(-8.92)"/>
  <line class="cls-6" x1="22.31" y1="168.77" x2="31.5" y2="167.43"/>
  <line class="cls-6" x1="23.84" y1="181.6" x2="33.03" y2="180.26"/>
  <line class="cls-6" x1="22.02" y1="175.18" x2="28.43" y2="174.03"/>
  <line class="cls-6" x1="52.56" y1="176.71" x2="61.75" y2="175.37"/>
  <line class="cls-6" x1="49.88" y1="164.84" x2="59.07" y2="163.5"/>
  <line class="cls-6" x1="55.24" y1="169.82" x2="63.38" y2="168.67"/>
  <g>
    <path class="cls-5" d="M186.71,278.94l-1.2-8.09.45-.07,4.42,5.31-.34.05,2.69-6.36.46-.07,1.19,8.09-.62.1-1-7,.14,0-2.36,5.6-.46.07-3.88-4.68.13-.06,1,7Z" transform="translate(-113.72 -109.72)"/>
    <path class="cls-5" d="M196,277.57l2.11-8.59.5-.07,4.49,7.6-.69.11-4.1-7,.27,0-1.9,7.9Zm1.09-2.6-.08-.56,4.22-.63.08.56Z" transform="translate(-113.72 -109.72)"/>
    <path class="cls-5" d="M204.62,276.29l-1.2-8.1.63-.09,1.2,8.1Zm-.17-3.77-.08-.54,2.5-.37a1.87,1.87,0,0,0,1.3-.65,1.66,1.66,0,0,0,.29-1.27,1.59,1.59,0,0,0-.65-1.11,1.86,1.86,0,0,0-1.42-.25l-2.51.37-.08-.56,2.48-.37a3,3,0,0,1,1.38.08,2.06,2.06,0,0,1,1,.65,2.16,2.16,0,0,1,.47,1.1,2.25,2.25,0,0,1-.13,1.19,2.1,2.1,0,0,1-.74.89,3.09,3.09,0,0,1-1.3.47Zm5.3,3L206,272.14l.6-.26,3.92,3.53Z" transform="translate(-113.72 -109.72)"/>
    <path class="cls-5" d="M209.76,267.84l-.09-.57,6.56-1,.08.57Zm4.07,7.09-1.17-7.87.63-.1,1.17,7.87Z" transform="translate(-113.72 -109.72)"/>
    <path class="cls-5" d="M219,274.15l-1.2-8.09.63-.1,1.2,8.1Z" transform="translate(-113.72 -109.72)"/>
    <path class="cls-5" d="M221.88,273.73l-1.2-8.09.45-.07.29.75,1.09,7.32Zm5.6-.83-6.32-6.47,0-.86,6.33,6.48Zm0,0-.29-.7-1.09-7.37.63-.09,1.2,8.1Z" transform="translate(-113.72 -109.72)"/>
    <path class="cls-5" d="M232.77,272.12,231.58,264l.62-.1,1.2,8.1Zm.34-.05-.09-.58,2.52-.37a3.6,3.6,0,0,0,1.72-.71,3.22,3.22,0,0,0,1-1.41,3.87,3.87,0,0,0-.53-3.59,3.23,3.23,0,0,0-1.4-1.05,3.72,3.72,0,0,0-1.86-.18l-2.48.37-.09-.58,2.5-.37a4.28,4.28,0,0,1,1.68.06,4.09,4.09,0,0,1,1.42.65,3.9,3.9,0,0,1,1.05,1.16,4.43,4.43,0,0,1,.54,1.57,4.38,4.38,0,0,1-.06,1.66,4,4,0,0,1-.66,1.41,3.78,3.78,0,0,1-1.17,1,4.17,4.17,0,0,1-1.58.54Z" transform="translate(-113.72 -109.72)"/>
    <path class="cls-5" d="M244.44,270.52a3.13,3.13,0,0,1-1.59-.16,2.92,2.92,0,0,1-1.21-.9A2.88,2.88,0,0,1,241,268l-.78-5.27.63-.09.77,5.22a2.53,2.53,0,0,0,.5,1.22,2.16,2.16,0,0,0,1,.71,2.49,2.49,0,0,0,1.25.11,2.42,2.42,0,0,0,1.15-.47,2.12,2.12,0,0,0,.71-.95,2.55,2.55,0,0,0,.12-1.3l-.77-5.24.63-.09.78,5.28a3,3,0,0,1-.16,1.56,2.91,2.91,0,0,1-.91,1.2A3,3,0,0,1,244.44,270.52Z" transform="translate(-113.72 -109.72)"/>
    <path class="cls-5" d="M249.49,269.65l-1.2-8.1.63-.09,1.2,8.09Zm-.12-3.41-.08-.56,2.56-.38a2.09,2.09,0,0,0,1-.36,1.73,1.73,0,0,0,.58-.73,1.84,1.84,0,0,0,.11-1,1.87,1.87,0,0,0-.4-.94,1.65,1.65,0,0,0-.77-.52,2.1,2.1,0,0,0-1-.08l-2.57.38-.08-.56,2.62-.38a2.75,2.75,0,0,1,1.32.1,2.26,2.26,0,0,1,1,.69,2.41,2.41,0,0,1,.51,1.21,2.38,2.38,0,0,1-.13,1.31,2.26,2.26,0,0,1-.77,1,2.81,2.81,0,0,1-1.22.47Z" transform="translate(-113.72 -109.72)"/>
    <path class="cls-5" d="M260.36,268.16a4.08,4.08,0,0,1-1.64-.09,3.89,3.89,0,0,1-1.41-.7,4.37,4.37,0,0,1-1.05-1.21,4.55,4.55,0,0,1-.49-3.26,4.16,4.16,0,0,1,.66-1.45,3.76,3.76,0,0,1,1.14-1.07,4.16,4.16,0,0,1,3.16-.47,3.84,3.84,0,0,1,1.4.7,4.21,4.21,0,0,1,1.05,1.2,4.48,4.48,0,0,1,.55,1.59,4.65,4.65,0,0,1-.06,1.67,4.21,4.21,0,0,1-.66,1.46,3.85,3.85,0,0,1-1.13,1.07A3.92,3.92,0,0,1,260.36,268.16Zm-.12-.6a3.27,3.27,0,0,0,1.65-.73,3.32,3.32,0,0,0,1-1.45,3.84,3.84,0,0,0,.16-1.89,4,4,0,0,0-.46-1.37,3.48,3.48,0,0,0-.87-1,3.23,3.23,0,0,0-1.17-.59,3.47,3.47,0,0,0-1.37-.07,3.35,3.35,0,0,0-1.65.72,3.27,3.27,0,0,0-1,1.44,3.84,3.84,0,0,0-.16,1.89,3.71,3.71,0,0,0,1.32,2.41,3.22,3.22,0,0,0,1.18.6A3.43,3.43,0,0,0,260.24,267.56Z" transform="translate(-113.72 -109.72)"/>
    <path class="cls-5" d="M266.13,267.18l-1.2-8.09.45-.07.29.74,1.09,7.33Zm5.6-.83-6.32-6.47,0-.86,6.33,6.47Zm0,0-.28-.71-1.09-7.36.63-.09,1.19,8.1Z" transform="translate(-113.72 -109.72)"/>
    <path class="cls-5" d="M272.68,258.52l-.08-.57,6.55-1,.09.57Zm4.07,7.09-1.16-7.87.63-.09,1.16,7.87Z" transform="translate(-113.72 -109.72)"/>
  </g>
  <g>
    <circle class="cls-1" cx="50.9" cy="30.38" r="30.38"/>
    <circle class="cls-2" cx="50.58" cy="30.38" r="25.86"/>
    <circle class="cls-3" cx="51.22" cy="30.06" r="22.3"/>
  </g>
  <path class="cls-4" d="M153.27,134.61l1-1,9.14,9.53-1.28.63Zm2.89,13.89a9.42,9.42,0,0,1-2.72-7.4,10.33,10.33,0,0,1,1.09-3.88,12.52,12.52,0,0,1,2.59-3.48,12.37,12.37,0,0,1,3.57-2.43,10.43,10.43,0,0,1,3.89-.92,9.55,9.55,0,0,1,3.84.67,10.24,10.24,0,0,1,5.65,5.93,11.32,11.32,0,0,1,.53,4L173,141a8.93,8.93,0,0,0-.38-3.42,8.14,8.14,0,0,0-1.94-3.12,7.67,7.67,0,0,0-3.85-2.26,8,8,0,0,0-4.37.24A10.91,10.91,0,0,0,158.3,135a11.05,11.05,0,0,0-2.75,4.06,8.14,8.14,0,0,0-.42,4.4,7.61,7.61,0,0,0,2.1,3.95,8.2,8.2,0,0,0,3.1,2.12,9,9,0,0,0,3.42.52l0,1.62a11,11,0,0,1-4-.68A9.61,9.61,0,0,1,156.16,148.5Zm1-17.63,1-.94,10,10.45-1.28.63Z" transform="translate(-113.72 -109.72)"/>
  <g>
    <g>
      <circle class="cls-1" cx="285.97" cy="70.61" r="48"/>
      <circle class="cls-2" cx="285.46" cy="70.61" r="40.85"/>
      <circle class="cls-3" cx="286.48" cy="70.1" r="35.23"/>
    </g>
    <path class="cls-4" d="M380.62,189.39l-1.46-2.1,22.22-15.5.79,2.56Zm32.3,7a18,18,0,0,1-7.13,3.07,17.63,17.63,0,0,1-7.34-.19,19.46,19.46,0,0,1-6.85-3.13A24.54,24.54,0,0,1,382.45,183a19.72,19.72,0,0,1-.57-7.45,18.66,18.66,0,0,1,14.95-15.63,21.36,21.36,0,0,1,7.55.18l-.53,3a16.45,16.45,0,0,0-6.43-.29,15.08,15.08,0,0,0-6.33,2.68,14.25,14.25,0,0,0-5.29,6.46,14.91,14.91,0,0,0-.83,8.14,22.07,22.07,0,0,0,10.27,14.66,15.29,15.29,0,0,0,8,2.05,14.38,14.38,0,0,0,7.93-2.74,15.33,15.33,0,0,0,4.8-5.12,16.77,16.77,0,0,0,2-6.17l3,.53a20.49,20.49,0,0,1-2.42,7.17A18,18,0,0,1,412.92,196.34Zm-26.52,1.32-1.46-2.09,20.26-14.14L406,184Z" transform="translate(-113.72 -109.72)"/>
    <path class="cls-4" d="M258.24,163.31l.56-2.49,24.1,5.42-1.35,2.31Zm2.21-9.85L261,151l26.43,5.95-1.35,2.31ZM277.1,182a18,18,0,0,1-7.07-3.2,17.79,17.79,0,0,1-4.82-5.54,19.54,19.54,0,0,1-2.3-7.18,24.57,24.57,0,0,1,3.5-15.59,19.61,19.61,0,0,1,5.12-5.44,17.6,17.6,0,0,1,14.39-2.8,17.59,17.59,0,0,1,7.23,3.29,21.31,21.31,0,0,1,5,5.69l-2.56,1.63a16.48,16.48,0,0,0-4.12-4.94,15.14,15.14,0,0,0-6.26-2.87,14.28,14.28,0,0,0-8.33.45,14.91,14.91,0,0,0-6.57,4.88,22,22,0,0,0-3.9,17.46,15.28,15.28,0,0,0,3.89,7.3,14.31,14.31,0,0,0,7.36,4,15.37,15.37,0,0,0,7,.1,16.8,16.8,0,0,0,5.87-2.72l1.62,2.56a20.47,20.47,0,0,1-6.92,3A18.18,18.18,0,0,1,277.1,182Z" transform="translate(-113.72 -109.72)"/>
  </g>
</svg>
