<svg id="Calque_2" data-name="Calque 2" xmlns="http://www.w3.org/2000/svg" width="282.12" height="238.92" viewBox="0 0 282.12 238.92">
  <defs>
    <style>
      .cls-1 {
        fill: #f5800d;
      }

      .cls-2 {
        fill: #ffb812;
      }
    </style>
  </defs>
  <path class="cls-1" d="M342.87,182.28a98.49,98.49,0,1,1-193.19-27.1,95.21,95.21,0,0,1,4.39-12.24,98.5,98.5,0,0,1,188.8,39.34Z" transform="translate(-60.75 -83.78)"/>
  <path class="cls-2" d="M337.75,213.74a97.79,97.79,0,0,1-7.32,16.48C295.38,210,257,179.8,219.43,166.3c-27.61-9.94-51-12.26-69.75-11.12a95.21,95.21,0,0,1,4.39-12.24c16.64-6.46,33.62-11.14,45.89-9.95,33.78,3.28,70.61,33.16,88.91,49C298,189.94,317.52,202,337.75,213.74Z" transform="translate(-60.75 -83.78)"/>
  <path class="cls-2" d="M280.19,286.24V322.7H89.47A28.72,28.72,0,0,1,60.75,294V128.53A28.72,28.72,0,0,1,89.47,99.81h77.06a111.53,111.53,0,0,0-26.32,37.11,107.91,107.91,0,0,0-5,13.84,111.47,111.47,0,0,0,145,135.48Z" transform="translate(-60.75 -83.78)"/>
</svg>
